<svg version="1.1" xmlns="http://www.w3.org/2000/svg" width="24" height="48" viewBox="0 0 24 48" enable-background="new 0 0 24 48"><g fill-rule="evenodd"><path fill="#fff" d="m12 0c-6.6 0-12 5.4-12 12 0 6.6 5.4 12 12 12s12-5.4 12-12c0-6.6-5.4-12-12-12m4.9 15.5l-1.4 1.4-3.5-3.5-3.5 3.5-1.4-1.4 3.5-3.5-3.5-3.5 1.4-1.4 3.5 3.5 3.5-3.5 1.4 1.4-3.5 3.5 3.5 3.5"/><path fill="#f50" d="m12 24c-6.6 0-12 5.4-12 12 0 6.6 5.4 12 12 12s12-5.4 12-12c0-6.6-5.4-12-12-12m4.9 15.5l-1.4 1.4-3.5-3.5-3.5 3.5-1.4-1.4 3.5-3.5-3.5-3.5 1.4-1.4 3.5 3.5 3.5-3.5 1.4 1.4-3.5 3.5 3.5 3.5"/></g></svg>