<svg version="1.1" xmlns="http://www.w3.org/2000/svg" width="38" height="38" viewBox="0 0 38 38" enable-background="new 0 0 38 38"><g fill-rule="evenodd"><path fill="#d8d8d8" d="M22,3H8v26h22V11L22,3z M22,6.008L27.016,11H22V6.008z M28,27
				H10V5h10v8h8V27z"/><path fill="#ff3c00" d="m17.363 22.18h-2.182c-.301 0-.545.244-.545.545l1.091 2.728c0 .301.244.545.545.545h2.182c.301 0 .545-.244.545-.545l-1.091-2.728c.0001-.301-.243-.545-.545-.545m7.09-3.818c0-.302-.244-.546-.545-.546v-3.272c0-.301-.244-.545-.545-.545-.302 0-.546.244-.546.545v.019c-2.44 2.371-4.363 2.163-4.363 2.163h-4.363v.027c-1.225.138-2.182 1.165-2.182 2.427s.957 2.289 2.182 2.427v.027h4.363c0 0 1.923-.303 4.363 2.585v.143c0 .301.244.545.546.545.041.056.075.041.104-.021.249-.05.44-.26.44-.523v-3.272c.301 0 .545-.244.545-.546.302 0 .546-.244.546-.545v-1.091c.0001-.303-.243-.547-.545-.547m-1.636 4.908c-2.147-2.569-4.363-2.182-4.363-2.182v-.09h.546v-3.353c.785-.266 2.31-.875 3.817-2.01 0 .529 0 7.16 0 7.636"/></g></svg>