<svg version="1.1" xmlns="http://www.w3.org/2000/svg" width="38" height="38" viewBox="0 0 38 38" enable-background="new 0 0 38 38"><g fill-rule="evenodd"><path fill="#43a6df" d="M24,27H10V5h10v8h8v7h2v-9l-8-8H8v26h16V27z M22,6.008
				L27.016,11H22V6.008z"/><path fill="#747474" d="m32 25v-1c0-1.657-1.344-3-3-3-1.657 0-3 1.343-3 3v1c-.553 0-1 .447-1 1v4c0 .552.447 1 1 1h6c.553 0 1-.448 1-1v-4c0-.553-.447-1-1-1m-2.937 4.344c-.829 0-1.063-.516-1.063-1.344 0-.829.234-1.656 1.063-1.656s.937.827.937 1.656c0 .828-.109 1.344-.937 1.344m1.937-4.344h-4v-1c0-1.104.896-2 2-2s2 .896 2 2v1"/><path fill="#ff3c00" d="m17.363 22.18h-2.182c-.301 0-.545.244-.545.545l1.091 2.728c0 .301.244.545.545.545h2.182c.301 0 .545-.244.545-.545l-1.091-2.728c.0001-.301-.243-.545-.545-.545m7.09-3.818c0-.302-.244-.546-.545-.546v-3.272c0-.301-.244-.545-.545-.545-.302 0-.546.244-.546.545v.019c-2.44 2.371-4.363 2.163-4.363 2.163h-4.363v.027c-1.225.138-2.182 1.165-2.182 2.427s.957 2.289 2.182 2.427v.027h4.363c0 0 1.923-.303 4.363 2.585v.143c0 .301.244.545.546.545.041.056.075.041.104-.021.249-.05.44-.26.44-.523v-3.272c.301 0 .545-.244.545-.546.302 0 .546-.244.546-.545v-1.091c.0001-.303-.243-.547-.545-.547m-1.636 4.908c-2.147-2.569-4.363-2.182-4.363-2.182v-.09h.546v-3.353c.785-.266 2.31-.875 3.817-2.01 0 .529 0 7.16 0 7.636"/></g></svg>