<svg version="1.1" xmlns="http://www.w3.org/2000/svg" width="16" height="16" viewBox="0 0 16 16" enable-background="new 0 0 16 16"><path fill-rule="evenodd" fill="#ff8113" d="m15 0h-14c-.552 0-1 .447-1 1v14c0 .553.448 1 1 1h14c.553 0 1-.447 1-1v-14c0-.553-.447-1-1-1m-10.995 13.332c-.735 0-1.332-.597-1.332-1.333s.597-1.333 1.332-1.333c.736 0 1.333.597 1.333 1.333s-.597 1.333-1.333 1.333m3.932.0001c.006-1.176-.59-2.489-1.535-3.474-.938-.993-2.603-1.618-3.731-1.612v-1.964c3.522.076 7.083 3.402 7.153 7.05h-1.887m3.508 0c-.009-4.783-4.182-8.693-8.778-8.702v-1.964c5.639 0 10.667 4.798 10.667 10.666h-1.889"/></svg>