<svg version="1.1" xmlns="http://www.w3.org/2000/svg" width="38" height="38" viewBox="0 0 38 38" enable-background="new 0 0 38 38"><path fill-rule="evenodd" fill="#43a6df" d="m22 3h-14v26h22v-18l-8-8m0 3.01l5.02 4.992h-5.02v-4.992m6 20.992h-18v-22h10v8h8v14m-10.447-6.01c-.371.565-.966.917-1.553.917h-1.068c-1.03 0-1.869-.856-1.869-1.909s.838-1.909 1.869-1.909h1.068c.667 0 1.092.213 1.419.713.164.25.496.316.741.149.245-.168.31-.507.146-.757-.528-.804-1.282-1.196-2.306-1.196h-1.068c-1.619 0-2.937 1.346-2.937 3s1.317 3 2.937 3h1.068c.953 0 1.865-.523 2.44-1.401.164-.25.098-.589-.146-.757-.245-.167-.577-.1-.741.15m2.287-2.039c.244.168.576.101.74-.149.328-.5.752-.713 1.42-.713h1.068c1.029 0 1.868.856 1.868 1.909s-.839 1.909-1.868 1.909h-1.068c-.587 0-1.182-.352-1.553-.917-.164-.251-.496-.317-.741-.15-.245.168-.311.507-.147.757.576.878 1.488 1.401 2.441 1.401h1.068c1.619 0 2.936-1.346 2.936-3s-1.316-3-2.936-3h-1.068c-1.023 0-1.779.392-2.307 1.196-.164.25-.098.589.147.757m-3.84 1.047c0 .301.239.546.534.546h4.805c.295 0 .534-.245.534-.546s-.239-.546-.534-.546h-4.805c-.296 0-.534.245-.534.546"/></svg>