<svg version="1.1" xmlns="http://www.w3.org/2000/svg" width="16" height="704" viewBox="0 0 16 704" enable-background="new 0 0 16 704"><g enable-background="new    "><path fill="#fff" d="m6.5 12c-1.2 0-2.2.9-2.4 2h1c.2-.6.8-1 1.4-1 .8 0 1.5.7 1.5 1.5 0 .7-.4 1.2-1 1.4v.1h-1v2h1v-1.1c1.1-.2 2-1.2 2-2.4 0-1.4-1.1-2.5-2.5-2.5m0-2c-3.6 0-6.5 2.9-6.5 6.5s2.9 6.5 6.5 6.5 6.5-2.9 6.5-6.5-2.9-6.5-6.5-6.5m0 12c-3 0-5.5-2.5-5.5-5.5 0-3 2.5-5.5 5.5-5.5s5.5 2.5 5.5 5.5c0 3-2.5 5.5-5.5 5.5m0-3.6c-.6 0-1.1.5-1.1 1.1 0 .6.5 1.1 1.1 1.1s1.1-.5 1.1-1.1c0-.6-.5-1.1-1.1-1.1"/><path fill="#b3b3b3" d="m6.5 42c-3.6 0-6.5 2.9-6.5 6.5 0 3.6 2.9 6.5 6.5 6.5s6.5-2.9 6.5-6.5c0-3.6-2.9-6.5-6.5-6.5m0 12c-3 0-5.5-2.5-5.5-5.5 0-3 2.5-5.5 5.5-5.5s5.5 2.5 5.5 5.5c0 3-2.5 5.5-5.5 5.5m0-10c-1.2 0-2.2.9-2.4 2h1c.2-.6.8-1 1.4-1 .8 0 1.5.7 1.5 1.5 0 .7-.4 1.2-1 1.4v.1h-1v2h1v-1.1c1.1-.2 2-1.2 2-2.4 0-1.4-1.1-2.5-2.5-2.5m0 6.4c-.6 0-1.1.5-1.1 1.1 0 .6.5 1.1 1.1 1.1s1.1-.5 1.1-1.1c0-.6-.5-1.1-1.1-1.1"/><g fill-rule="evenodd"><path fill="#fff" d="m12 81.2v-2.4h-2.3c-.1-.2-.1-.4-.2-.6l1.6-1.6-1.7-1.7-1.6 1.6c-.2-.1-.4-.2-.6-.3v-2.2h-2.4v2.2c-.2.1-.4.1-.7.2l-1.5-1.5-1.7 1.7 1.5 1.5c-.1.2-.2.4-.3.7h-2.1v2.4h2.1c.1.2.2.5.3.7l-1.5 1.5 1.7 1.7 1.5-1.5c.2.1.5.2.7.3v2.1h2.4v-2.2c.2-.1.4-.2.6-.3l1.6 1.6 1.7-1.7-1.6-1.6c.1-.2.2-.4.2-.6h2.3m-6.1 1.1c-1.3 0-2.3-1-2.3-2.3s1-2.3 2.3-2.3 2.3 1 2.3 2.3-1 2.3-2.3 2.3"/><path fill="#b3b3b3" d="m12 113.2v-2.4h-2.3c-.1-.2-.1-.4-.2-.6l1.6-1.6-1.7-1.7-1.6 1.6c-.2-.1-.4-.2-.6-.3v-2.2h-2.4v2.2c-.2.1-.4.1-.7.2l-1.5-1.5-1.7 1.7 1.5 1.5c-.1.2-.2.4-.3.7h-2.1v2.4h2.1c.1.3.2.5.3.7l-1.5 1.5 1.7 1.7 1.5-1.5c.2.1.5.2.7.3v2.1h2.4v-2.2c.2-.1.4-.2.6-.3l1.6 1.6 1.7-1.7-1.6-1.6c.1-.2.2-.4.2-.6h2.3m-6.1 1.1c-1.3 0-2.3-1-2.3-2.3 0-1.3 1-2.3 2.3-2.3s2.3 1 2.3 2.3c0 1.3-1 2.3-2.3 2.3"/></g><path fill="#fff" d="m12 139c-.9.4-5.4-1.5-6-3-.8 1.5-5.1 3.4-6 3 0 1.5-1 9.2 6 11 7-1.9 6-9.3 6-11m-6 10c-5.8-1.5-5-7.7-5-9 .7.3 4.5-.4 5-2 .5 1.6 4.3 2.3 5 2 0 1.4.8 7.4-5 9"/><path fill="#b3b3b3" d="m12 171c-.9.4-5.4-1.5-6-3-.8 1.5-5.1 3.4-6 3 0 1.5-1 9.2 6 11 7-1.9 6-9.3 6-11m-6 10c-5.8-1.5-5-7.7-5-9 .7.3 4.5-.4 5-2 .5 1.6 4.3 2.3 5 2 0 1.4.8 7.4-5 9"/><g fill-rule="evenodd"><path fill="#fff" d="m12 208.1c0-2.8-2.7-5.1-6-5.1-3.3 0-6 2.3-6 5.1 0 2.8 2.2 5.1 5.4 5.1.1 0 .1 0 .2 0 .6 0 1.1-.1 1.6-.2l4.7 1-1.1-2.9c.8-.9 1.2-1.9 1.2-3m-2.1 2.1l-.6.6.3.8.2.5-2.3-.5h-.1-.1c-.3 0-.6 0-.9.1-.3 0-.5.1-.7.1-.1 0-.1 0-.2 0-2.4 0-4.1-1.6-4.1-3.7 0-2 2.1-3.7 4.7-3.7 2.6 0 4.7 1.7 4.7 3.7-.1.9-.6 1.6-.9 2.1"/><path fill="#b3b3b3" d="m12 240.1c0-2.8-2.7-5.1-6-5.1-3.3 0-6 2.3-6 5.1 0 2.8 2.2 5.1 5.4 5.1.1 0 .1 0 .2 0 .6 0 1.1-.1 1.6-.2l4.7 1-1.1-2.9c.8-.9 1.2-1.9 1.2-3m-2.1 2.1l-.6.6.3.8.2.5-2.3-.5h-.1-.1c-.3 0-.6 0-.9.1-.3 0-.5.1-.7.1-.1 0-.1 0-.2 0-2.4 0-4.1-1.6-4.1-3.7 0-2 2.1-3.7 4.7-3.7 2.6 0 4.7 1.7 4.7 3.7-.1.9-.6 1.6-.9 2.1"/></g><path fill="#fff" d="m7 274v-1h-2v1h2m-7-6v9h12v-9h-12m11 7.3l-2.6-2.6-.7.7 2.6 2.6h-8.6l2.6-2.6-.7-.7-2.6 2.6v-5.6l3.6 3.6.4-.3.4-.4-3.7-3.6h8.6l-3.6 3.6.7.7 3.6-3.6v5.6"/><g fill="#b3b3b3"><path d="m0 300v9h12v-9h-12m3.6 4.6l-2.6 2.7v-5.6l3.6 3.6.4-.3v1h2v-1h-2l.4-.4-3.7-3.6h8.6l-3.6 3.6.3.4.4.4 3.6-3.6v5.6l-2.6-2.6-.7.7 2.6 2.6h-8.6l2.6-2.6-.7-.9"/><path d="m9 363.8v-2.8h-1v1.8l-1.3-1.4c-.4-.4-1-.4-1.4 0l-5.3 5.5 1 1.1h.6l.4-.4v4.4h1 6 1v-4.3l.3.3h.6l1.1-1-3-3.2m0 7.2h-2v-3h-2v3h-2v-4.4l2.3-2.3c.4-.4 1-.4 1.4 0l2.3 2.3v4.4"/></g><g fill="#fff"><path d="m9 331.8v-2.8h-1v1.8l-1.3-1.4c-.4-.4-1-.4-1.4 0l-5.3 5.5 1 1.1h.6l.4-.4v4.4h8v-4.3l.3.3h.6l1.1-1-3-3.2m0 7.2h-2v-3h-2v3h-2v-4.4l2.3-2.3c.4-.4 1-.4 1.4 0l2.3 2.3v4.4"/><path d="m6 394c-3.3 0-6 2.7-6 6 0 3.3 2.7 6 6 6s6-2.7 6-6c0-3.3-2.7-6-6-6m0 11c-2.8 0-5-2.2-5-5 0-2.8 2.2-5 5-5s5 2.2 5 5c0 2.8-2.2 5-5 5m1-8h-2v2h-2v2h2v2h2v-2h2v-2h-2v-2"/></g><path fill="#b3b3b3" d="m6 426c-3.3 0-6 2.7-6 6s2.7 6 6 6 6-2.7 6-6-2.7-6-6-6m0 11c-2.8 0-5-2.2-5-5 0-2.8 2.2-5 5-5s5 2.2 5 5c0 2.8-2.2 5-5 5m1-8h-2v2h-2v2h2v2h2v-2h2v-2h-2v-2"/><path fill="#fff" d="m8 458.3v1.1c1.8.8 3 2.5 3 4.6 0 2.8-2.2 5-5 5s-5-2.2-5-5c0-2 1.2-3.8 3-4.6v-1.1c-2.3.8-4 3-4 5.7 0 3.3 2.7 6 6 6s6-2.7 6-6c0-2.6-1.7-4.8-4-5.7m-1-.3h-2v8h2v-8"/><path fill="#b3b3b3" d="m8 491.3v1.1c1.8.8 3 2.5 3 4.6 0 2.8-2.2 5-5 5s-5-2.2-5-5c0-2 1.2-3.8 3-4.6v-1.1c-2.3.8-4 3-4 5.7 0 3.3 2.7 6 6 6s6-2.7 6-6c0-2.6-1.7-4.8-4-5.7m-1-.3h-2v8h2v-8"/><path fill="#fff" d="m0 523v11h15v-11h-15m13 1l-5 5h-1l-5-5h11m1 9h-13v-8l6 6h1l6-6v8"/><path fill="#b3b3b3" d="m0 555v11h15v-11h-15m13 1l-5 5h-1l-5-5h11m1 9h-13v-8l6 6h1l6-6v8"/><g fill-rule="evenodd"><path fill="#fff" d="m4.2 594.9c.2-.1.4-.2.5-.3v-.6c.3-.2.5.1.6-.2.2 0 .8-.6.9-.9 0 0-.2-.3-.2-.5 0-.2.1-.4.1-.4 0-.1 0-.1 0-.2-.1-.1-.3-.2-.3-.3 0 0 0 0 0-.1-.1-.1-.4 0-.4-.2 0-.3 0-1.3 0-1.7-.1-.3.3-.7 0-.9-.6-.3-.6 0-.9 0-.3 0-1 .3-1.6.4-.6.1-1 .7-1 1.4 0 .6 0 .7 0 1.1-.2.1-.3.3-.3.5 0 0 0 .2 0 .4 0 .2.1.4.1.4 0 .3.3.4.5.4.2.4.4.6.7.9v.8c0 .6-1 .7-1 .7-2.2.3-1.9 2.4-1.9 2.4h3.6c-.1-.8-.3-2.7.6-3.1m10.6 1.2c0-.8-1-1.4-1.8-1.4 0 0-2.2-.1-2.2-1v-1.1c.4-.3.7-.7 1-1.1 0 0 .1 0 .1 0 .4 0 .7-.2.7-.5 0 0 0-.2.1-.5 0-.3.1-.6.1-.6 0-.3-.2-.6-.5-.7 0-.5.1-.8 0-1.4-.1-.8-.3-1.4-1.1-1.6-.6-.1-1.1-.4-1.6-.4-.4 0-.5.1-1.5.2-.8.1-1.5 1-1.5 1.8 0 .7 0 1 0 1.4-.3.1-.5.4-.4.7 0 0 0 .3.1.5 0 .3.1.5.1.5 0 .3.4.6.7.5 0 0 0 0 .1 0 .2.5.6.9 1 1.1v1.1c0 .8-2.2 1-2.2 1-.8 0-1.8.6-1.8 1.4l-.2 2h11l-.2-1.9"/><path fill="#b3b3b3" d="m4.2 626.9c.2-.1.4-.2.5-.3v-.6c.3-.2.5.1.6-.2.2 0 .8-.6.9-.9 0 0-.2-.3-.2-.5 0-.2.1-.4.1-.4 0-.1 0-.1 0-.2-.1-.1-.3-.2-.3-.3 0 0 0 0 0-.1-.1-.1-.4 0-.4-.2 0-.3 0-1.3 0-1.7-.1-.3.3-.7 0-.9-.6-.3-.6 0-.9 0-.3 0-1 .3-1.6.4-.6.1-1 .7-1 1.4 0 .6 0 .7 0 1.1-.2.1-.3.3-.3.5 0 0 0 .2 0 .4 0 .2.1.4.1.4 0 .3.3.4.5.4.2.4.4.6.7.9v.8c0 .6-1 .7-1 .7-2.2.3-1.9 2.4-1.9 2.4h3.6c-.1-.8-.3-2.7.6-3.1m10.6 1.2c0-.8-1-1.4-1.8-1.4 0 0-2.2-.1-2.2-1v-1.1c.4-.3.7-.7 1-1.1 0 0 .1 0 .1 0 .4 0 .7-.2.7-.5 0 0 0-.2.1-.5 0-.3.1-.6.1-.6 0-.3-.2-.6-.5-.7 0-.5.1-.8 0-1.4-.1-.8-.3-1.4-1.1-1.6-.6-.1-1.1-.4-1.6-.4-.4 0-.5.1-1.5.2-.8.1-1.5 1-1.5 1.8 0 .7 0 1 0 1.4-.3.1-.5.4-.4.7 0 0 0 .3.1.5 0 .3.1.5.1.5 0 .3.4.6.7.5 0 0 0 0 .1 0 .2.5.6.9 1 1.1v1.1c0 .8-2.2 1-2.2 1-.8 0-1.8.6-1.8 1.4l-.2 2h11l-.2-1.9"/></g><path fill="#fff" d="m7.5 650c.3 0 .5-.2.5-.5 0-.3-.2-.5-.5-.5h-3c-.3 0-.5.2-.5.5 0 .3.2.5.5.5h-4.5v1h12v-1h-4.5m-5.5 12h8l1-10h-10l1 10m6-9h1v8h-1v-8m-1.5 0v7.9h-1v-7.9h1m-3.5 0h1v8h-1v-8"/><path fill="#adadad" d="m7.5 681c.3 0 .5-.2.5-.5 0-.3-.2-.5-.5-.5h-3c-.3 0-.5.2-.5.5 0 .3.2.5.5.5h-4.5v1h12v-1h-4.5m-5.5 12h8l1-10h-10l1 10m6-9h1v8h-1v-8m-1.5 0v7.9h-1v-7.9h1m-3.5 0h1v8h-1v-8"/></g></svg>