<svg version="1.1" xmlns="http://www.w3.org/2000/svg" xmlns:xlink="http://www.w3.org/1999/xlink" width="544" height="64" viewBox="264 -24 544 64" enable-background="new 264 -24 544 64"><defs><path id="0" d="m264-23h1v-1h-1v1m0 63h1v-1h-1v1m543 0h1v-1h-1v1m0-64v1h1v-1h-1"/><clipPath><use xlink:href="#0"/></clipPath></defs><g fill="#fff"><path d="m734.8 29.2l-3.6-3.6c1.3-1.9 1.1-4.6-.6-6.3-2-2-5.1-2-7.1 0s-2 5.1 0 7.1c1.7 1.7 4.4 1.9 6.3.6l3.6 3.6c.4.4 1 .4 1.4 0 .3-.3.3-1 0-1.4m-9.9-4.2c-1.2-1.2-1.2-3.1 0-4.2 1.2-1.1 3.1-1.2 4.2 0 1.2 1.2 1.2 3.1 0 4.2-1.2 1.2-3.1 1.2-4.2 0"/><path d="m734.8-2.8l-3.6-3.6c1.3-1.9 1.1-4.6-.6-6.3-2-2-5.1-2-7.1 0s-2 5.1 0 7.1c1.7 1.7 4.4 1.9 6.3.6l3.6 3.6c.4.4 1 .4 1.4 0 .3-.3.3-1 0-1.4m-9.9-4.2c-1.2-1.2-1.2-3.1 0-4.2 1.2-1.1 3.1-1.2 4.2 0 1.2 1.2 1.2 3.1 0 4.2-1.2 1.2-3.1 1.2-4.2 0"/><path d="m766 25.2v-2.4h-2.3c-.1-.2-.1-.4-.2-.6l1.6-1.6-1.7-1.7-1.6 1.6c-.2-.1-.4-.2-.6-.3v-2.2h-2.4v2.2c-.2.1-.4.1-.7.2l-1.5-1.5-1.7 1.7 1.5 1.5c-.1.2-.2.4-.3.7h-2.1v2.4h2.1c.1.3.2.5.3.7l-1.5 1.5 1.7 1.7 1.5-1.5c.2.1.5.2.7.3v2.1h2.4v-2.2c.2-.1.4-.2.6-.3l1.6 1.6 1.7-1.7-1.6-1.6c.1-.2.2-.4.2-.6h2.3m-6.1 1.1c-1.3 0-2.3-1-2.3-2.3s1-2.3 2.3-2.3c1.3 0 2.3 1 2.3 2.3s-1 2.3-2.3 2.3"/><path d="m766-6.8v-2.4h-2.3c-.1-.2-.1-.4-.2-.6l1.6-1.6-1.7-1.7-1.6 1.6c-.2-.1-.4-.2-.6-.3v-2.2h-2.4v2.2c-.2.1-.4.1-.7.2l-1.5-1.5-1.7 1.7 1.5 1.5c-.1.2-.2.4-.3.7h-2.1v2.4h2.1c.1.3.2.5.3.7l-1.5 1.5 1.7 1.7 1.5-1.5c.2.1.5.2.7.3v2.1h2.4v-2.2c.2-.1.4-.2.6-.3l1.6 1.6 1.7-1.7-1.6-1.6c.1-.2.2-.4.2-.6 0 0 2.3 0 2.3 0m-6.1 1.1c-1.3 0-2.3-1-2.3-2.3s1-2.3 2.3-2.3c1.3 0 2.3 1 2.3 2.3s-1 2.3-2.3 2.3"/><path d="m376-16c-4.4 0-8 3.6-8 8s3.6 8 8 8 8-3.6 8-8-3.6-8-8-8m0 15c-3.8 0-7-3.1-7-7 0-3.8 3.1-7 7-7 3.8 0 7 3.1 7 7 0 3.8-3.2 7-7 7m2.9-8c0-.2.1-.3.1-.5 0-1.4-1.1-2.5-2.5-2.5h-1c-1.4 0-2.5 1.1-2.5 2.5 0 .2 0 .3.1.5h-.1-1v5h8v-5h-1.1m-2.9 3c-.6 0-1-.4-1-1s.4-1 1-1 1 .4 1 1-.4 1-1 1m-2-3c0-1.1.9-2 2-2s2 .9 2 2h-4"/><path d="m378.9 23c0-.2.1-.3.1-.5 0-1.4-1.1-2.5-2.5-2.5h-1c-1.4 0-2.5 1.1-2.5 2.5 0 .2 0 .3.1.5h-.1-1v5h8v-5h-1.1m-2.9 3c-.6 0-1-.4-1-1s.4-1 1-1 1 .4 1 1-.4 1-1 1m-2-3c0-1.1.9-2 2-2s2 .9 2 2h-4m2-7c-4.4 0-8 3.6-8 8s3.6 8 8 8 8-3.6 8-8-3.6-8-8-8m0 15c-3.8 0-7-3.1-7-7s3.1-7 7-7c3.8 0 7 3.1 7 7s-3.2 7-7 7"/></g><polygon fill="#8f8f8f" points="437,-24 441,-20 445,-24 	"/><g fill="#fff"><path d="m281-12h-2v3h-3v2h3v3h2v-3h3v-2h-3v-3m-1-4c-4.4 0-8 3.6-8 8s3.6 8 8 8 8-3.6 8-8-3.6-8-8-8m0 15c-3.8 0-7-3.1-7-7 0-3.8 3.1-7 7-7 3.8 0 7 3.1 7 7 0 3.8-3.2 7-7 7"/><path d="m281 20h-2v3h-3v2h3v3h2v-3h3v-2h-3v-3m-1-4c-4.4 0-8 3.6-8 8s3.6 8 8 8 8-3.6 8-8-3.6-8-8-8m0 15c-3.8 0-7-3.1-7-7s3.1-7 7-7c3.8 0 7 3.1 7 7s-3.2 7-7 7"/><path d="m312-16c-4.4 0-8 3.6-8 8s3.6 8 8 8 8-3.6 8-8-3.6-8-8-8m0 15c-3.8 0-7-3.1-7-7s3.1-7 7-7c3.8 0 7 3.1 7 7s-3.2 7-7 7m3.3-10.9l-4.9 5.7-.6-3.9-1.3 1.5.7 4.6h4.6l1.3-1.5h-4l5-5.7-.8-.7m-4.8 6.4"/><path d="m312 16c-4.4 0-8 3.6-8 8s3.6 8 8 8 8-3.6 8-8-3.6-8-8-8m0 15c-3.8 0-7-3.1-7-7s3.1-7 7-7c3.8 0 7 3.1 7 7s-3.2 7-7 7m3.3-10.9l-4.9 5.7-.6-3.9-1.3 1.5.7 4.6h4.6l1.3-1.5h-4l5-5.7-.8-.7m-4.8 6.4"/><path d="m344 16c-4.4 0-8 3.6-8 8s3.6 8 8 8 8-3.6 8-8-3.6-8-8-8m0 15c-3.8 0-7-3.1-7-7 0-3.8 3.1-7 7-7 3.8 0 7 3.1 7 7 0 3.8-3.2 7-7 7m-1.7-11l-1.3 1.5h4l-5 5.7.8.7 4.9-5.7.6 3.9 1.3-1.5-.7-4.6h-4.6m3.2 1.5"/><path d="m344-16c-4.4 0-8 3.6-8 8s3.6 8 8 8 8-3.6 8-8-3.6-8-8-8m0 15c-3.8 0-7-3.1-7-7 0-3.8 3.1-7 7-7 3.8 0 7 3.1 7 7 0 3.8-3.2 7-7 7m-1.7-11l-1.3 1.5h4l-5 5.7.8.7 4.9-5.7.6 3.9 1.3-1.5-.7-4.6h-4.6m3.2 1.5"/></g><g fill="#8f8f8f"><path d="m414.4-13l-2.7 2.7-2-2 2.7-2.7c-1.3-.5-2.7-.2-3.7.8s-1.2 2.4-.8 3.7l-6.9 7.5 2 2 6.9-7.5c1.3.5 2.8.3 3.8-.7s1.2-2.5.7-3.8"/><path d="m414.4 19l-2.7 2.7-2-2 2.7-2.7c-1.3-.5-2.7-.2-3.7.8s-1.2 2.4-.8 3.7l-6.9 7.5 2 2 6.9-7.5c1.3.5 2.8.3 3.8-.7s1.2-2.5.7-3.8"/><path d="m465-10.4v2.4.6 5.4h6v-6h-3c0-.2 0-.5 0-.9 0-3 3-3.1 3-3.1s0-2.2 0-3.1c-5.9.1-6 4.7-6 4.7m14-1.5c0 0 0-2.2 0-3.1-5.9 0-6 4.6-6 4.6v2.4.6 5.4h6v-6h-3c0-.2 0-.5 0-.9 0-3 3-3 3-3"/><path d="m465 21.6v2.4.6 5.4h6v-6h-3c0-.2 0-.5 0-.9 0-3 3-3.1 3-3.1s0-2.2 0-3.1c-5.9.1-6 4.7-6 4.7m14-1.5c0 0 0-2.2 0-3.1-5.9 0-6 4.6-6 4.6v2.4.6 5.4h6v-6h-3c0-.2 0-.5 0-.9 0-3 3-3 3-3"/><path d="m499-6.7l3.8 3.8 7.1-7.1-3.8-3.8-7.1 7.1m-1.3 4.4c-.8.9 0 1.6.8.8.7-.7 3.6-.6 3.6-.6l-3.8-3.8c0-.1 0 2.9-.6 3.6m13.5-10.6l-2.3-2.3c-.4-.4-1.1-.4-1.5 0l-.7.7 3.8 3.8.7-.7c.4-.4.4-1 0-1.5"/><path d="m499 25.3l3.8 3.8 7.1-7.1-3.8-3.8-7.1 7.1m-1.3 4.4c-.8.9 0 1.6.8.8.7-.7 3.6-.6 3.6-.6l-3.8-3.8c0-.1 0 2.9-.6 3.6m13.5-10.6l-2.3-2.3c-.4-.4-1.1-.4-1.5 0l-.7.7.8.8 2.3 2.3.8.8.7-.7c.3-.5.3-1.1-.1-1.6"/></g><g fill="#ff004e"><path d="m537-15c-3.9 0-7 3.1-7 7s3.1 7 7 7 7-3.1 7-7-3.1-7-7-7m3.5 9.1l-1.4 1.4-2.1-2.1-2.1 2.1-1.4-1.4 2.1-2.1-2.1-2.1 1.4-1.4 2.1 2.1 2.1-2.1 1.4 1.4-2.1 2.1 2.1 2.1"/><path d="m537 17c-3.9 0-7 3.1-7 7s3.1 7 7 7 7-3.1 7-7-3.1-7-7-7m3.5 9.1l-1.4 1.4-2.1-2.1-2.1 2.1-1.4-1.4 2.1-2.1-2.1-2.1 1.4-1.4 2.1 2.1 2.1-2.1 1.4 1.4-2.1 2.1 2.1 2.1"/></g><g fill="#ff3c00"><path d="m568-15c-3.9 0-7 3.1-7 7s3.1 7 7 7 7-3.1 7-7-3.1-7-7-7m0 11c-.6 0-1-.4-1-1s.4-1 1-1 1 .4 1 1-.4 1-1 1m1-4c0 .6-.4 1-1 1s-1-.4-1-1v-3c0-.6.4-1 1-1s1 .4 1 1v3"/><path d="m568 17c-3.9 0-7 3.1-7 7s3.1 7 7 7 7-3.1 7-7-3.1-7-7-7m0 11c-.6 0-1-.4-1-1s.4-1 1-1 1 .4 1 1-.4 1-1 1m1-4c0 .6-.4 1-1 1s-1-.4-1-1v-3c0-.6.4-1 1-1s1 .4 1 1v3"/></g><g fill="#69bf5b"><path d="m600-15c-3.9 0-7 3.1-7 7s3.1 7 7 7 7-3.1 7-7-3.1-7-7-7m-1 2.3c0-.2.1-.3.2-.3h1.5c.1 0 .2.1.2.3v1.4c0 .2-.1.3-.2.3h-1.5c-.1 0-.2-.1-.2-.3v-1.4m3 9.4c0 .2-.1.3-.2.3h-3.5c-.1 0-.2-.1-.2-.3v-1.5c0-.2.1-.3.2-.3h.7v-2.9h-.7c-.1 0-.2-.1-.2-.3v-1.5c0-.2.1-.3.2-.3h2.5c.1 0 .2.1.2.3v4.8h.7c.1 0 .2.1.2.3l.1 1.4"/><path d="m600 17c-3.9 0-7 3.1-7 7s3.1 7 7 7 7-3.1 7-7-3.1-7-7-7m-1 2.3c0-.2.1-.3.2-.3h1.5c.1 0 .2.1.2.3v1.4c0 .2-.1.3-.2.3h-1.5c-.1 0-.2-.1-.2-.3v-1.4m3 9.4c0 .2-.1.3-.2.3h-3.5c-.1 0-.2-.1-.2-.3v-1.5c0-.2.1-.3.2-.3h.7v-2.9h-.7c-.1 0-.2-.1-.2-.3v-1.5c0-.2.1-.3.2-.3h2.5c.1 0 .2.1.2.3v4.8h.7c.1 0 .2.1.2.3l.1 1.4"/></g><g fill="#43a6df"><path d="m625-13v2h14v-2h-14m0 6h14v-2h-14v2m0 4h14v-2h-14v2"/><path d="m625 19v2h14v-2h-14m0 6h14v-2h-14v2m0 4h14v-2h-14v2"/></g><g fill="#ff7a00"><path d="m664.7-15h-1.5l-7.2 13h16l-7.3-13m-.7 11c-.6 0-1-.4-1-1s.4-1 1-1 1 .4 1 1-.4 1-1 1m0-3c-.6 0-1-.4-1-1v-2c0-.6.4-1 1-1s1 .4 1 1v2c0 .6-.4 1-1 1"/><path d="m664.7 17h-1.5l-7.2 13h16l-7.3-13m-.7 11c-.6 0-1-.4-1-1s.4-1 1-1 1 .4 1 1-.4 1-1 1m0-3c-.6 0-1-.4-1-1v-2c0-.6.4-1 1-1s1 .4 1 1v2c0 .6-.4 1-1 1"/></g><g fill="#8f8f8f"><path d="m703.7-3.8l-3.1-3.1c-.2-.2-.5-.3-.8-.3-.3 0-.6.1-.8.4l-2.2-2.2 1.1-1.1c.1-.1.1-.2.1-.3s0-.2-.1-.3c.3.3.5.5.8.5.2 0 .4-.1.6-.2.3-.3.7-.6.7-1.1 0-.2-.1-.4-.2-.6l-3.5-3.5c-.3-.3-.5-.4-.7-.4-.5 0-.8.4-1.1.7-.2.2-.2.4-.2.6 0 .4.2.6.5.8-.1-.1-.2-.1-.3-.1s-.2 0-.3.1l-3 3c-.1.1-.1.2-.1.3s0 .2.1.3c-.3-.3-.5-.5-.8-.5-.2 0-.4.1-.6.2-.3.3-.7.6-.7 1.1 0 .2.1.4.2.6l3.5 3.5c.2.2.4.2.6.2.5 0 .8-.4 1.1-.7.2-.2.2-.4.2-.6 0-.4-.2-.6-.5-.8.1.1.2.1.3.1s.2 0 .3-.1l1.1-1.1 2.2 2.2c-.2.2-.4.5-.4.8s.1.6.3.8l3.1 3.1c.2.2.5.3.8.3s.6-.1.8-.3l.9-.9c.2-.2.3-.5.3-.8s0-.4-.2-.6"/><path d="m703.7 28.2l-3.1-3.1c-.2-.2-.5-.3-.8-.3-.3 0-.6.1-.8.4l-2.2-2.2 1.1-1.1c.1-.1.1-.2.1-.3s0-.2-.1-.3c.3.3.5.5.8.5.2 0 .4-.1.6-.2.3-.3.7-.6.7-1.1 0-.2-.1-.4-.2-.6l-3.5-3.5c-.2-.2-.4-.2-.6-.2-.5 0-.8.4-1.1.7-.2.2-.2.4-.2.6 0 .4.2.6.5.8-.1-.1-.2-.1-.3-.1s-.2 0-.3.1l-3 3c-.1.1-.1.2-.1.3s0 .2.1.3c-.3-.3-.5-.5-.8-.5-.2 0-.4.1-.6.2-.3.3-.7.6-.7 1.1 0 .2.1.4.2.6l3.5 3.5c.2.2.4.2.6.2.5 0 .8-.4 1.1-.7.2-.2.2-.4.2-.6 0-.4-.2-.6-.5-.8.1.1.2.1.3.1s.2 0 .3-.1l1.1-1.1 2.2 2.2c-.2.2-.4.5-.4.8s.1.6.3.8l3.1 3.1c.2.2.5.3.8.3.3 0 .6-.1.8-.3l.9-.9c.2-.2.3-.5.3-.8s-.1-.6-.3-.8"/><path d="m791-12v2h10v-2h-10m0 5h8v-2h-8v2m0 3h6v-2h-6v2m-1-10h-2v11h-2l3 3 3-3h-2v-11"/><path d="m791 20v2h10v-2h-10m0 5h8v-2h-8v2m0 3h6v-2h-6v2m-1-10h-2v11h-2l3 3 3-3h-2v-11"/></g></svg>