<svg version="1.1" xmlns="http://www.w3.org/2000/svg" width="70" height="35" viewBox="0 0 70 35" enable-background="new 0 0 70 35"><g enable-background="new    " fill-rule="evenodd"><polygon fill="#b2b2b2" points="41,3 39,3 36,7 39,11 41,11 38,7.1 			"/><polygon fill="#fff" points="41,23 39,23 36,27 39,31 41,31 38,27.1 			"/><polygon fill="#b2b2b2" points="58,3 56,3 59,7.1 56,11 58,11 61,7 			"/><polygon fill="#fff" points="58,23 56,23 59,27.1 56,31 58,31 61,27 			"/><path fill="#b2b2b2" d="m23 9v-5l-1.8 1.8c-1.7-1.7-4.1-2.8-6.7-2.8-5.2 0-9.5 4.3-9.5 9.5 0 .2 0 .3 0 .5h2c0-.2 0-.3 0-.5 0-4.1 3.4-7.5 7.5-7.5 2.1 0 3.9.8 5.3 2.2l-1.8 1.8h5m1.5 1c-.8 0-1.5.7-1.5 1.5s.7 1.5 1.5 1.5 1.5-.7 1.5-1.5-.7-1.5-1.5-1.5"/><path fill="#fff" d="m23 29v-5l-1.8 1.8c-1.7-1.7-4.1-2.8-6.7-2.8-5.2 0-9.5 4.3-9.5 9.5 0 .2 0 .3 0 .5h2c0-.2 0-.3 0-.5 0-4.1 3.4-7.5 7.5-7.5 2.1 0 3.9.8 5.3 2.2l-1.8 1.8h5m1.5 1c-.8 0-1.5.7-1.5 1.5s.7 1.5 1.5 1.5 1.5-.7 1.5-1.5-.7-1.5-1.5-1.5"/></g></svg>