<svg version="1.1" xmlns="http://www.w3.org/2000/svg" width="14" height="14" viewBox="0 0 14 14" enable-background="new 0 0 14 14"><path fill="#fff" d="m4.9 8.3l-1.2-.7c-1.8 2-2 3.4-2 3.4l-1.5-2.7c-.3-.4 0-.9 0-.9s.3-.5.9-1.4l-1.1-.7 3.4.1 1.5 2.9m1.5 4.4v.2l-3.4-.2c-.4 0-.8-.4-.9-.7-.3-.7.1-1.5.3-2.2 0 0 .6.1 4 .2v2.7m-1.5-7l-2.5-1.5h-.2l1.8-2.8c.2-.3.7-.4 1.1-.4.8.1 1.4.8 1.9 1.4 0 0-.4.4-2.1 3.3m7.3-3.4l-1.8 2.8-3.3-.1 1.2-.7c-.9-2.4-2.3-3.3-2.3-3.3h3c.6 0 .9.4.9.4s.6.6 1.2 1.6l1.1-.7m-.5 9.8c-.2.5-.8.5-.8.5s-.6.1-1.7.1l.1 1.3-1.8-2.8 1.7-2.8.1 1.3c2.7.3 4-.4 4-.4l-1.6 2.8m2.2-4.6c.2.3.1.8-.1 1.1-.4.6-1.4.8-2.1 1 0 0-.3-.5-2.1-3.3l2.5-1.5.2-.1 1.6 2.8"/></svg>