<svg version="1.1" xmlns="http://www.w3.org/2000/svg" width="16" height="14" viewBox="0 0 16 14" enable-background="new 0 0 16 14"><path fill="#43a6df" d="m8 0c-3.8 0-7 3.1-7 7 0 3.9 3.1 7 7 7 3.9 0 7-3.1 7-7 0-3.9-3.1-7-7-7m.5 11.2c-.2.2-.4.3-.8.3-.3 0-.6-.1-.8-.3s-.3-.4-.3-.7c0-.3.1-.6.3-.7.2-.2.4-.3.8-.3.3 0 .6.1.8.3.2.2.3.4.3.7 0 .2-.1.5-.3.7m2-5.4c-.2.3-.6.7-1.1 1.1-.4.2-.7.5-.8.6-.1.1-.1.3-.1.6v.4h-1.6v-.5c0-.4.1-.7.2-1 .2-.3.5-.6.9-.9.4-.3.7-.5.8-.7.2-.2.3-.4.3-.6 0-.3-.1-.4-.3-.6s-.5-.2-.8-.2c-.6 0-1.3.2-2 .6l-.7-1.3c.9-.5 1.8-.7 2.8-.7.8 0 1.4.2 1.9.6.5.4.7.9.7 1.5 0 .4 0 .8-.2 1.1"/></svg>