<svg version="1.1" xmlns="http://www.w3.org/2000/svg" width="10" height="80" viewBox="0 0 10 80" enable-background="new 0 0 10 80"><g enable-background="new    " fill="#b6b6b6" fill-rule="evenodd"><path d="m9 58h-6v-1c0-1.1.9-2 2-2s2 .9 2 2h1c0-1.7-1.3-3-3-3s-3 1.3-3 3v1h-1c-.6 0-1 .4-1 1v5c0 .6.4 1 1 1h8c.6 0 1-.4 1-1v-5c0-.6-.4-1-1-1m-3 4h-2v-1c0-.6.4-1 1-1s1 .4 1 1v1"/><path d="m9.8 24.1c0-.7-.9-1.4-1.6-1.4 0 0-2-.1-2-.9v-1c.4-.3.7-.7.9-1.1 0 0 .1 0 .1 0 .3 0 .6-.2.7-.5 0 0 0-.2.1-.4 0-.3 0-.6 0-.6 0-.3-.2-.6-.5-.7 0-.5.1-.8 0-1.4-.1-.7-.2-1.7-1-1.5-.9.2-1.1-.6-1.5-.6-.4 0-.3.4-1.2.5-.8.1-1.3.9-1.4 1.7 0 .7 0 .9 0 1.4-.3.1-.4.4-.4.6 0 0 0 .2.1.5 0 .2.1.5.1.5 0 .3.3.5.6.5 0 0 0 0 .1 0 .2.5.5.8.9 1.1v1c0 .8-2 .9-2 .9-.7 0-1.6.6-1.6 1.4l-.2 1.9h10l-.2-1.9"/></g></svg>