<svg version="1.1" xmlns="http://www.w3.org/2000/svg" width="36" height="36" viewBox="0 0 36 36" enable-background="new 0 0 36 36"><path fill-rule="evenodd" fill="#43a6df" d="m18.1 0c-10 0-18.1 8.1-18.1 18 0 9.9 8.1 18 18.1 18 9.9 0 17.9-8.1 17.9-18 0-9.9-8-18-17.9-18m0 34c-8.9 0-16.1-7.2-16.1-16 0-8.8 7.2-16 16.1-16 8.8 0 15.9 7.2 15.9 16 0 8.8-7.1 16-15.9 16m-.4-11.9c1.4 0 3.3-1.1 3.3-2.5v-10.4c0-1.4-1.6-2.5-3-2.5-1.4 0-3 1.1-3 2.5v10.4c0 1.4 1.4 2.5 2.7 2.5m.4 1.4c-1.6 0-2.8 1.3-2.8 2.8 0 1.6 1.3 2.8 2.8 2.8 1.6 0 2.8-1.3 2.8-2.8 0-1.6-1.2-2.8-2.8-2.8"/></svg>