<svg version="1.1" xmlns="http://www.w3.org/2000/svg" width="125" height="33" viewBox="0 0 125 31" enable-background="new 0 0 125 31"><path fill-rule="evenodd" fill="#fff" d="m26.05 5.03c-1.781 0-3.371.391-4.77 1.172s-2.512 1.898-3.34 3.352h-.094c-1.141-3.02-3.719-4.523-7.734-4.523-1.563 0-2.992.348-4.289 1.043-1.297.695-2.297 1.676-3 2.941h-.14l-.492-3.493h-1.922v25.477h2.32v-14.06c0-3.422.609-5.91 1.828-7.465s3.164-2.332 5.836-2.332c3.938 0 5.906 2.148 5.906 6.445v17.414h2.367v-14.93c0-3.078.625-5.336 1.875-6.773s3.179-2.156 5.789-2.156c2 0 3.484.57 4.453 1.711.969 1.141 1.453 2.953 1.453 5.438v16.71h2.297v-16.664c0-3.234-.695-5.594-2.086-7.078-1.39-1.485-3.476-2.227-6.257-2.227m26.2 0c-3.391 0-6.086 1.223-8.09 3.668-2 2.445-3 5.699-3 9.762 0 4.109 1.035 7.305 3.105 9.586 2.07 2.281 4.957 3.422 8.66 3.422 1.468 0 2.813-.113 4.03-.34s2.546-.652 3.984-1.277v-2.109c-1.688.672-3.082 1.109-4.184 1.313s-2.379.305-3.832.305c-2.985 0-5.277-.922-6.879-2.766-1.602-1.844-2.418-4.516-2.449-8.02h18.352v-1.875c0-3.594-.867-6.438-2.602-8.531s-4.1-3.142-7.1-3.142m-8.508 11.485c.25-3.047 1.117-5.379 2.602-6.996 1.484-1.617 3.453-2.426 5.906-2.426 2.265 0 4.04.832 5.32 2.496s1.922 3.973 1.922 6.926h-15.75m28.735 11.484c-.688-.938-1.031-2.383-1.031-4.336v-16.12h7.477v-2.02h-7.477v-6.164h-1.196l-1.172 5.766-3.773 1.055v1.359h3.773v16.453c0 2.578.535 4.469 1.605 5.672s2.73 1.805 4.98 1.805c1.469 0 2.766-.188 3.891-.563v-1.875c-1.094.25-2.375.375-3.844.375s-2.546-.468-3.233-1.406m18.304-21.832c-1.188.758-2.305 2.074-3.352 3.949h-.164l-.234-4.594h-1.969v25.477h2.32v-14.06c0-2.813.695-5.141 2.086-6.984s3.172-2.766 5.344-2.766c1.141 0 2.242.133 3.305.398l.445-2.227c-1.234-.219-2.391-.328-3.469-.328-1.687 0-3.124.379-4.312 1.137m31.04 2.391c-1.992-2.352-4.738-3.527-8.238-3.527-3.516 0-6.281 1.16-8.297 3.48s-3.02 5.559-3.02 9.715c0 2.641.453 4.969 1.359 6.984s2.211 3.563 3.914 4.641 3.672 1.617 5.906 1.617c3.547 0 6.328-1.168 8.344-3.504s3.02-5.582 3.02-9.738c0-4.094-.996-7.317-2.988-9.668m-1.758 17.859c-1.539 1.961-3.715 2.941-6.527 2.941s-4.988-.98-6.527-2.941-2.309-4.691-2.309-8.191c0-3.531.762-6.262 2.285-8.191s3.691-2.895 6.504-2.895 4.996.969 6.551 2.906 2.332 4.664 2.332 8.18c0 3.5-.77 6.23-2.309 8.191"/></svg>