<svg version="1.1" xmlns="http://www.w3.org/2000/svg" width="38" height="38" viewBox="0 0 38 38" enable-background="new 0 0 38 38"><g fill-rule="evenodd"><path fill="#43a6df" d="M24,27H10V5h10v8h8v7h2v-9l-8-8H8v26h16V27z M22,6.008
				L27.016,11H22V6.008z"/><path fill="#747474" d="m32 25v-1c0-1.657-1.344-3-3-3-1.657 0-3 1.343-3 3v1c-.553 0-1 .447-1 1v4c0 .552.447 1 1 1h6c.553 0 1-.448 1-1v-4c0-.553-.447-1-1-1m-2.937 4.344c-.829 0-1.063-.516-1.063-1.344 0-.829.234-1.656 1.063-1.656s.937.827.937 1.656c0 .828-.109 1.344-.937 1.344m1.937-4.344h-4v-1c0-1.104.896-2 2-2s2 .896 2 2v1"/></g><polygon fill="#ff3c00" points="22,3 18,3 18,21 20.469,19 23,21 23,4 			"/></svg>