<svg version="1.1" xmlns="http://www.w3.org/2000/svg" width="38" height="38" viewBox="0 0 38 38" enable-background="new 0 0 38 38"><g fill-rule="evenodd"><path fill="#43a6df" d="m10 9.975c-.165.015-.331.025-.5.025-.521 0-1.022-.077-1.5-.212v19.212h16v-2h-14v-17.02m12-6.975h-7.212c.135.478.212.979.212 1.5 0 .169-.001.335-.025.5h5.03v8h8v7h2v-9l-8-8m0 8v-4.992l5.02 4.992h-5.02"/><path fill="#747474" d="m32 25v-1c0-1.657-1.344-3-3-3-1.657 0-3 1.343-3 3v1c-.553 0-1 .447-1 1v4c0 .552.447 1 1 1h6c.553 0 1-.448 1-1v-4c0-.553-.447-1-1-1m-2.937 4.344c-.829 0-1.063-.516-1.063-1.344 0-.829.234-1.656 1.063-1.656s.937.827.937 1.656c0 .828-.109 1.344-.937 1.344m1.937-4.344h-4v-1c0-1.104.896-2 2-2s2 .896 2 2v1"/></g><g fill="#ff3c00"><polygon points="12.998,4.889 12.742,2.785 10.279,3.505 10.542,0.994 8.445,0.994 8.715,3.505 6.307,2.785 
				5.995,4.86 8.161,5.039 6.736,7.021 8.618,7.992 9.469,5.987 10.458,8.006 12.258,7.021 10.825,5.039 			"/><polygon points="22,3 18,3 18,21 20.469,19 23,21 23,4 			"/></g></svg>