<?xml version="1.0" encoding="utf-8"?>
<!-- Generator: Adobe Illustrator 19.0.0, SVG Export Plug-In . SVG Version: 6.00 Build 0)  -->
<svg version="1.1" id="Capa_1" xmlns="http://www.w3.org/2000/svg" xmlns:xlink="http://www.w3.org/1999/xlink" x="0px" y="0px"
	 viewBox="-360 238.3 120 120" style="enable-background:new -360 238.3 120 120;" xml:space="preserve">
<style type="text/css">
	.st0{fill:#FFFFFF;}
</style>
<path class="st0" d="M-301.2,272.4c-0.4,0-0.8,0.4-0.8,0.8s0.4,0.8,0.8,0.8s0.8-0.4,0.8-0.8S-300.7,272.4-301.2,272.4z"/>
<path class="st0" d="M-314.7,287.1c0.4,0,0.8-0.4,0.8-0.8s-0.4-0.8-0.8-0.8s-0.8,0.4-0.8,0.8S-315.1,287.1-314.7,287.1z"/>
<path class="st0" d="M-294.6,264.3c-7.3,0-13.3,5.1-13.8,11.4c-7,0.4-13.5,5.4-13.5,12.2c0,2.8,1.1,5.6,3.2,7.8
	c0.4,1.7-0.1,3.4-1.3,4.7c-0.2,0.2-0.3,0.6-0.2,0.9c0.1,0.3,0.4,0.5,0.8,0.5c2.3,0,4.6-0.9,6.2-2.5c1.6,0.6,3.7,0.9,5.7,0.9
	c7.3,0,13.3-5.1,13.8-11.4c1.7-0.1,3.5-0.4,4.9-0.9c1.7,1.6,3.9,2.5,6.2,2.5c0.3,0,0.6-0.2,0.8-0.5c0.1-0.3,0.1-0.7-0.2-0.9
	c-1.2-1.2-1.7-3-1.3-4.7c2-2.2,3.2-4.9,3.2-7.8C-280.3,269.4-287.4,264.3-294.6,264.3z M-307.7,298.5c-1.9,0-4.1-0.4-5.6-1
	c-0.3-0.1-0.7,0-0.9,0.2c-1,1.1-2.3,1.8-3.7,2.2c0.8-1.5,1-3.2,0.5-4.8c0-0.1-0.1-0.2-0.2-0.3c-1.8-1.9-2.9-4.3-2.9-6.8
	c0-5.7,5.8-10.6,12.7-10.6c6.5,0,12.2,4.5,12.2,10.6C-295.5,293.7-300.9,298.5-307.7,298.5z M-284.8,283.3c-0.1,0.1-0.2,0.2-0.2,0.3
	c-0.5,1.6-0.3,3.4,0.5,4.8c-1.4-0.3-2.7-1.1-3.7-2.2c-0.2-0.2-0.6-0.3-0.9-0.2c-1.3,0.5-3.1,0.9-4.8,0.9c-0.2-3.1-1.8-6-4.4-8.1
	h10.6c0.4,0,0.8-0.4,0.8-0.8s-0.4-0.8-0.8-0.8h-13.1c-1.8-0.9-3.9-1.5-6.1-1.6c0.5-5.5,5.8-9.8,12.2-9.8c6.9,0,12.7,4.8,12.7,10.6
	C-281.9,279-283,281.4-284.8,283.3z"/>
<path class="st0" d="M-301.2,285.4h-10.3c-0.4,0-0.8,0.4-0.8,0.8c0,0.4,0.4,0.8,0.8,0.8h10.3c0.4,0,0.8-0.4,0.8-0.8
	C-300.3,285.8-300.7,285.4-301.2,285.4z"/>
<path class="st0" d="M-301.2,290.3h-13.5c-0.4,0-0.8,0.4-0.8,0.8s0.4,0.8,0.8,0.8h13.5c0.4,0,0.8-0.4,0.8-0.8
	S-300.7,290.3-301.2,290.3z"/>
<path class="st0" d="M-287.6,272.4h-10.3c-0.4,0-0.8,0.4-0.8,0.8c0,0.4,0.4,0.8,0.8,0.8h10.3c0.4,0,0.8-0.4,0.8-0.8
	C-286.8,272.8-287.2,272.4-287.6,272.4z"/>
</svg>
