<svg version="1.1" xmlns="http://www.w3.org/2000/svg" width="120" height="120" viewBox="0 0 120 120" enable-background="new 0 0 120 120"><path fill="#fff" d="m60 23c-11.6 0-21 9.4-21 21 0 11.6 9.4 21 21 21s21-9.4 21-21c0-11.6-9.4-21-21-21m0 39c-9.9 0-18-8.1-18-18 0-9.9 8.1-18 18-18s18 8.1 18 18c0 9.9-8.1 18-18 18m4.1-28.2c-.6-.5-1.3-.8-2.1-1-.8-.2-1.7-.3-2.6-.3-1 0-1.9.1-2.8.4-.9.2-1.8.6-2.5 1.1v4.7c.8-.7 1.6-1.2 2.4-1.5.8-.3 1.7-.5 2.4-.5.4 0 .7.1 1 .2.3.1.5.3.8.5.2.2.4.4.5.7.1.3.2.6.2.9 0 .4-.1.7-.2 1-.1.3-.3.6-.5.9-.2.3-.4.6-.7.9-.3.3-.6.6-1 .9-.4.3-.7.6-1 .9-.3.3-.5.6-.7 1-.2.3-.3.7-.4 1.1-.1.4-.1.8-.1 1.3 0 .3 0 .6.1 1 .1.3.1.6.2.9h4c-.1-.2-.2-.4-.3-.7-.1-.3-.1-.5-.1-.8 0-.4 0-.7.1-1 .1-.3.2-.6.4-.8.2-.3.4-.5.7-.8.3-.3.6-.5.9-.8.5-.4 1-.9 1.4-1.3.4-.4.7-.9 1-1.3.3-.5.5-.9.6-1.5.1-.5.2-1.1.2-1.7 0-1-.2-1.8-.5-2.6-.3-.8-.8-1.3-1.4-1.8m-4.9 16.6c-.8 0-1.5.2-2 .7-.5.5-.8 1.1-.8 1.8 0 .7.3 1.3.8 1.8.5.5 1.2.7 2 .7.8 0 1.5-.2 2-.7.5-.5.8-1.1.8-1.8 0-.7-.3-1.3-.8-1.8-.5-.5-1.2-.7-2-.7"/></svg>