<?xml version="1.0" encoding="utf-8"?>
<!-- Generator: Adobe Illustrator 19.0.0, SVG Export Plug-In . SVG Version: 6.00 Build 0)  -->
<svg version="1.1" id="Capa_1" xmlns="http://www.w3.org/2000/svg" xmlns:xlink="http://www.w3.org/1999/xlink" x="0px" y="0px"
	 viewBox="-360 238.3 120 120" style="enable-background:new -360 238.3 120 120;" xml:space="preserve">
<style type="text/css">
	.st0{fill:#FFFFFF;}
</style>
<g>
	<path class="st0" d="M-307.3,281.7l-2.5,5.6c-0.1,0.1-0.2,0.2-0.4,0.2h-1.3c-0.2,0-0.3-0.1-0.4-0.2l-1.2-2.7
		c-0.1-0.3-0.2-0.5-0.3-0.8c-0.1,0.3-0.2,0.5-0.3,0.8l-1.2,2.7c-0.1,0.1-0.2,0.2-0.4,0.2h-1.3c-0.2,0-0.3-0.1-0.4-0.2l-2.3-5.6
		c0-0.1,0-0.2,0.1-0.3s0.2-0.2,0.3-0.2h1.4c0.2,0,0.3,0.1,0.4,0.2l1,2.8c0.1,0.2,0.2,0.5,0.2,0.7c0.1-0.2,0.2-0.4,0.3-0.7l1.2-2.9
		c0.1-0.1,0.2-0.2,0.4-0.2h1.2c0.2,0,0.3,0.1,0.4,0.2l1.2,2.8c0.1,0.3,0.2,0.5,0.3,0.7c0.1-0.2,0.2-0.4,0.3-0.7l1.1-2.8
		c0.1-0.1,0.2-0.2,0.4-0.2h1.4c0.1,0,0.3,0.1,0.3,0.2C-307.2,281.4-307.2,281.5-307.3,281.7z M-294.1,281.7l-2.5,5.6
		c-0.1,0.1-0.2,0.2-0.4,0.2h-1.3c-0.2,0-0.3-0.1-0.4-0.2l-1.2-2.7c-0.1-0.3-0.2-0.5-0.3-0.8c-0.1,0.3-0.2,0.5-0.3,0.8l-1.2,2.7
		c-0.1,0.1-0.2,0.2-0.4,0.2h-1.3c-0.2,0-0.3-0.1-0.4-0.2l-2.3-5.6c0-0.1,0-0.2,0.1-0.3c0.1-0.1,0.2-0.2,0.3-0.2h1.4
		c0.2,0,0.3,0.1,0.4,0.2l1,2.8c0.1,0.2,0.2,0.5,0.2,0.7c0.1-0.2,0.2-0.4,0.3-0.7l1.2-2.9c0.1-0.1,0.2-0.2,0.4-0.2h1.2
		c0.2,0,0.3,0.1,0.4,0.2l1.2,2.8c0.1,0.3,0.2,0.5,0.3,0.7c0.1-0.2,0.2-0.4,0.3-0.7l1.1-2.8c0.1-0.1,0.2-0.2,0.4-0.2h1.4
		c0.1,0,0.3,0.1,0.3,0.2C-294.1,281.4-294,281.5-294.1,281.7z M-280.9,281.7l-2.5,5.6c-0.1,0.1-0.2,0.2-0.4,0.2h-1.3
		c-0.2,0-0.3-0.1-0.4-0.2l-1.2-2.7c-0.1-0.3-0.2-0.5-0.3-0.8c-0.1,0.3-0.2,0.5-0.3,0.8l-1.2,2.7c-0.1,0.1-0.2,0.2-0.4,0.2h-1.3
		c-0.2,0-0.3-0.1-0.4-0.2l-2.3-5.6c0-0.1,0-0.2,0-0.3s0.2-0.2,0.3-0.2h1.4c0.2,0,0.3,0.1,0.4,0.2l1,2.8c0.1,0.2,0.2,0.5,0.2,0.7
		c0.1-0.2,0.2-0.4,0.3-0.7l1.2-2.9c0.1-0.1,0.2-0.2,0.4-0.2h1.2c0.2,0,0.3,0.1,0.4,0.2l1.2,2.8c0.1,0.3,0.2,0.5,0.3,0.7
		c0.1-0.2,0.2-0.4,0.3-0.7l1.1-2.8c0.1-0.1,0.2-0.2,0.4-0.2h1.4c0.1,0,0.3,0.1,0.3,0.2C-280.9,281.4-280.9,281.5-280.9,281.7z"/>
	<g>
		<path class="st0" d="M-315.2,278.4c0.4-1.1,0.9-2.1,1.6-3c0.1,0,0.2,0.1,0.3,0.1h2.8c-0.3,0.9-0.5,1.9-0.7,3h3c0.2-1,0.5-2,0.8-3
			h14.7c0.3,0.9,0.6,1.9,0.8,3h3c-0.2-1-0.4-2-0.7-3h2.8c0.1,0,0.2,0,0.3-0.1c0.6,0.9,1.1,1.9,1.6,3h3.1
			c-2.5-7.7-9.7-13.3-18.2-13.3c-8.5,0-15.7,5.6-18.2,13.3H-315.2z M-289,272.5h-1.8c-0.4-0.8-0.8-1.5-1.3-2.2
			C-290.9,270.9-289.9,271.6-289,272.5z M-300.1,268.1c2.3,0,4.4,1.7,6,4.4h-12C-304.5,269.8-302.4,268.1-300.1,268.1z
			 M-308.2,270.2c-0.5,0.7-0.9,1.4-1.3,2.2h-1.8C-310.3,271.6-309.3,270.9-308.2,270.2z"/>
		<path class="st0" d="M-285,290.2c-0.4,1.1-0.9,2.1-1.6,3c-0.1,0-0.2-0.1-0.3-0.1h-2.8c0.3-0.9,0.5-1.9,0.7-3h-3
			c-0.2,1-0.5,2-0.8,3h-14.7c-0.3-0.9-0.6-1.9-0.8-3h-3c0.2,1,0.4,2,0.7,3h-2.8c-0.1,0-0.2,0-0.3,0.1c-0.6-0.9-1.1-1.9-1.6-3h-3.1
			c2.5,7.7,9.7,13.3,18.2,13.3c8.5,0,15.7-5.6,18.2-13.3H-285z M-311.2,296.1h1.8c0.4,0.8,0.8,1.6,1.3,2.2
			C-309.3,297.7-310.3,296.9-311.2,296.1z M-300.1,300.5c-2.3,0-4.4-1.7-6-4.4h12C-295.7,298.8-297.8,300.5-300.1,300.5z
			 M-292,298.3c0.5-0.7,0.9-1.4,1.3-2.2h1.8C-289.9,296.9-290.9,297.7-292,298.3z"/>
	</g>
</g>
</svg>
