<svg version="1.1" xmlns="http://www.w3.org/2000/svg" width="120" height="120" viewBox="52 -52 120 120" enable-background="new 52 -52 120 120"><path fill="#fff" d="m136.5-5.7c-5.1 8.5-14.6 14.2-24.5 14.2s-19.4-5.8-24.5-14.2c-.3-.6-.6-1.2-.6-1.9s.2-1.3.6-1.9c5.1-8.4 14.6-14.2 24.5-14.2s19.4 5.7 24.5 14.2c.3.6.6 1.2.6 1.9s-.3 1.3-.6 1.9m-13.7-11.8c1.1 1.9 1.7 4.1 1.7 6.3 0 6.9-5.6 12.5-12.5 12.5s-12.5-5.6-12.5-12.5c0-2.2.6-4.4 1.7-6.3-4.4 2.2-8 5.8-10.7 9.9 4.8 7.4 12.5 12.5 21.5 12.5s16.7-5.1 21.5-12.5c-2.7-4.1-6.3-7.7-10.7-9.9m-10.8-2.2c-4.7 0-8.5 3.8-8.5 8.5 0 .7.6 1.3 1.3 1.3.7 0 1.3-.6 1.3-1.3 0-3.2 2.6-5.8 5.8-5.8.7 0 1.3-.6 1.3-1.3.1-.8-.5-1.4-1.2-1.4"/></svg>