<svg version="1.1" xmlns="http://www.w3.org/2000/svg" width="38" height="38" viewBox="0 0 38 38" enable-background="new 0 0 38 38"><path fill-rule="evenodd" fill="#43a6df" d="m22 3h-7.212c.135.478.212.979.212 1.5 0 .169-.001.335-.025.5h5.03v8h8v14h-18v-17.02c-.165.015-.331.025-.5.025-.521 0-1.022-.077-1.5-.212v19.212h22v-18l-8-8m0 8v-4.992l5.02 4.992h-5.02"/><polygon fill="#ff3c00" points="12.998,4.889 12.742,2.785 10.279,3.505 10.542,0.994 8.445,0.994 8.715,3.505 6.307,2.785 
				5.995,4.86 8.161,5.039 6.736,7.021 8.618,7.992 9.469,5.987 10.458,8.006 12.258,7.021 10.825,5.039 			"/></svg>